<?xml version="1.0" encoding="iso-8859-1"?>
<!-- Generator: Adobe Illustrator 19.0.0, SVG Export Plug-In . SVG Version: 6.00 Build 0)  -->
<svg version="1.1" id="Capa_1" xmlns="http://www.w3.org/2000/svg" xmlns:xlink="http://www.w3.org/1999/xlink" x="0px" y="0px"
	 viewBox="0 0 496.125 496.125" style="enable-background:new 0 0 496.125 496.125;" xml:space="preserve">
<path style="fill:#9F3A37;" d="M96.062,400.125h-88v-53.6c0-21.6,12-40.8,31.2-50.4l80.8-40l48-96h224l48,96l48,48v96h-56"/>
<path d="M488.062,408.125h-56v-16h48v-84.8l-45.6-45.6c-0.8-0.8-0.8-1.6-1.6-2.4l-45.6-91.2h-214.4l-45.6,91.2
	c-0.8,1.6-2.4,3.2-3.2,3.2l-81.6,41.6c-16,8-26.4,24.8-26.4,43.2v44.8h80v16h-88c-4.8,0-8-3.2-8-8v-53.6c0-24,13.6-46.4,35.2-57.6
	l78.4-39.2l47.2-93.6c1.6-2.4,4-4.8,7.2-4.8h224c3.2,0,5.6,1.6,7.2,4.8l47.2,95.2l47.2,47.2c1.6,1.6,2.4,3.2,2.4,5.6v96
	C496.062,404.925,492.862,408.125,488.062,408.125z"/>
<path style="fill:#BF7D2C;" d="M144.062,72.125c13.6,0,24-10.4,24-24s-10.4-24-24-24s-24,10.4-24,24"/>
<path d="M144.062,80.125v-16c8.8,0,16-7.2,16-16s-7.2-16-16-16s-16,7.2-16,16h-16c0-17.6,14.4-32,32-32s32,14.4,32,32
	S161.662,80.125,144.062,80.125z"/>
<rect x="8.062" y="456.125" style="fill:#5C6373;" width="480" height="32"/>
<path d="M488.062,496.125h-480c-4.8,0-8-3.2-8-8v-32c0-4.8,3.2-8,8-8h480c4.8,0,8,3.2,8,8v32
	C496.062,492.925,492.862,496.125,488.062,496.125z M16.062,480.125h464v-16h-464V480.125z"/>
<circle style="fill:#5C6373;" cx="152.062" cy="400.125" r="56"/>
<path d="M152.062,464.125c-35.2,0-64-28.8-64-64s28.8-64,64-64s64,28.8,64,64S187.262,464.125,152.062,464.125z M152.062,352.125
	c-26.4,0-48,21.6-48,48s21.6,48,48,48s48-21.6,48-48S178.462,352.125,152.062,352.125z"/>
<circle style="fill:#A4A5A6;" cx="152.062" cy="400.125" r="24"/>
<path d="M152.062,432.125c-17.6,0-32-14.4-32-32s14.4-32,32-32s32,14.4,32,32S169.662,432.125,152.062,432.125z M152.062,384.125
	c-8.8,0-16,7.2-16,16s7.2,16,16,16s16-7.2,16-16S160.862,384.125,152.062,384.125z"/>
<circle style="fill:#5C6373;" cx="376.062" cy="400.125" r="56"/>
<path d="M376.062,464.125c-35.2,0-64-28.8-64-64s28.8-64,64-64s64,28.8,64,64S411.262,464.125,376.062,464.125z M376.062,352.125
	c-26.4,0-48,21.6-48,48s21.6,48,48,48s48-21.6,48-48S402.462,352.125,376.062,352.125z"/>
<circle style="fill:#A4A5A6;" cx="376.062" cy="400.125" r="24"/>
<path d="M376.062,432.125c-17.6,0-32-14.4-32-32s14.4-32,32-32s32,14.4,32,32S393.662,432.125,376.062,432.125z M376.062,384.125
	c-8.8,0-16,7.2-16,16s7.2,16,16,16s16-7.2,16-16S384.862,384.125,376.062,384.125z"/>
<rect x="160.062" y="120.125" width="240" height="16"/>
<path d="M208.062,296.125h-88c-4.8,0-8-3.2-8-8v-32c0-4.8,3.2-8,8-8h136v-88h16v96c0,4.8-3.2,8-8,8h-136v16h80V296.125z"/>
<polygon style="fill:#A4A5A6;" points="120.062,256.125 264.062,256.125 264.062,160.125 168.062,160.125 "/>
<path d="M264.062,264.125h-144c-4.8,0-8-3.2-8-8c0-1.6,0-2.4,0.8-3.2l48-96c1.6-2.4,4-4.8,7.2-4.8h96c4.8,0,8,3.2,8,8v96
	C272.062,260.925,268.862,264.125,264.062,264.125z M132.862,248.125h123.2v-80h-83.2L132.862,248.125z"/>
<polygon style="fill:#A4A5A6;" points="440.062,256.125 296.062,256.125 296.062,160.125 392.062,160.125 "/>
<path d="M440.062,264.125h-144c-4.8,0-8-3.2-8-8v-96c0-4.8,3.2-8,8-8h96c3.2,0,5.6,1.6,7.2,4.8l48,96c1.6,4,0,8.8-3.2,10.4
	C442.462,264.125,441.662,264.125,440.062,264.125z M304.062,248.125h123.2l-40-80h-83.2V248.125z"/>
<rect x="208.062" y="392.125" width="112" height="16"/>
<rect x="272.062" y="280.125" width="16" height="120"/>
<rect x="224.062" y="280.125" width="32" height="16"/>
<rect x="304.062" y="280.125" width="32" height="16"/>
<rect x="32.062" y="296.925" width="16" height="103.2"/>
<rect x="8.062" y="360.125" width="32" height="16"/>
<polygon style="fill:#CB5940;" points="488.062,352.125 456.062,352.125 456.062,272.125 488.062,304.125 "/>
<path d="M488.062,360.125h-32c-4.8,0-8-3.2-8-8v-80c0-4.8,3.2-8,8-8c2.4,0,4,0.8,5.6,2.4l32,32c1.6,1.6,2.4,3.2,2.4,5.6v48
	C496.062,356.925,492.862,360.125,488.062,360.125z M464.062,344.125h16v-36.8l-16-16V344.125z"/>
<rect x="206.338" y="223.841" transform="matrix(-0.7071 0.7071 -0.7071 -0.7071 574.2193 225.8332)" width="67.999" height="16"/>
<rect x="140.058" y="200.125" transform="matrix(-0.7071 0.7071 -0.7071 -0.7071 502.3431 208.1725)" width="135.999" height="16"/>
<rect x="176.062" y="128.125" width="16" height="32"/>
<rect x="368.062" y="128.125" width="16" height="32"/>
<rect x="200.062" y="96.125" style="fill:#A4A5A6;" width="80" height="32"/>
<path d="M280.062,136.125h-80c-4.8,0-8-3.2-8-8v-32c0-4.8,3.2-8,8-8h80c4.8,0,8,3.2,8,8v32
	C288.062,132.925,284.862,136.125,280.062,136.125z M208.062,120.125h64v-16h-64V120.125z"/>
<rect x="240.062" y="64.125" style="fill:#5C6373;" width="80" height="32"/>
<path d="M320.062,104.125h-80c-4.8,0-8-3.2-8-8v-32c0-4.8,3.2-8,8-8h80c4.8,0,8,3.2,8,8v32
	C328.062,100.925,324.862,104.125,320.062,104.125z M248.062,88.125h64v-16h-64V88.125z"/>
<rect x="280.062" y="96.125" style="fill:#7D828C;" width="80" height="32"/>
<path d="M360.062,136.125h-80c-4.8,0-8-3.2-8-8v-32c0-4.8,3.2-8,8-8h80c4.8,0,8,3.2,8,8v32
	C368.062,132.925,364.862,136.125,360.062,136.125z M288.062,120.125h64v-16h-64V120.125z"/>
<path style="fill:#7D828C;" d="M136.062,88.125c8.8,0,16-7.2,16-16s-7.2-16-16-16c-3.2,0-6.4,0.8-8.8,2.4
	c-2.4-10.4-12-18.4-23.2-18.4c0-17.6-14.4-32-32-32s-32,14.4-32,32c0,0.8,0,0.8,0,1.6c-2.4-0.8-5.6-1.6-8-1.6c-13.6,0-24,10.4-24,24
	s10.4,24,24,24H136.062z"/>
<path d="M136.062,96.125h-104c-17.6,0-32-14.4-31.2-32.8c0-17.6,14.4-32,32-31.2c4-21.6,25.6-36,47.2-31.2c16,3.2,28.8,16,31.2,32
	c8.8,2.4,16,8,20.8,15.2c12.8-2.4,25.6,6.4,27.2,20s-6.4,25.6-20,27.2C138.462,96.125,137.662,96.125,136.062,96.125z
	 M32.062,48.125c-8.8,0-16,7.2-16,16s7.2,16,16,16h104c4.8,0,8-3.2,8-8s-3.2-8-8-8c-1.6,0-3.2,0.8-4.8,1.6c-4,2.4-8.8,1.6-11.2-2.4
	c0-0.8,0-1.6-0.8-3.2c-1.6-7.2-8-12-15.2-12c-4.8,0-8-3.2-8-8c0-13.6-10.4-24-24-24s-24,10.4-24,24v0.8c0,4.8-3.2,8-8,8
	c-0.8,0-2.4,0-3.2-0.8C36.062,48.125,33.662,48.125,32.062,48.125z"/>
<g>
</g>
<g>
</g>
<g>
</g>
<g>
</g>
<g>
</g>
<g>
</g>
<g>
</g>
<g>
</g>
<g>
</g>
<g>
</g>
<g>
</g>
<g>
</g>
<g>
</g>
<g>
</g>
<g>
</g>
</svg>
