<svg height="512" viewBox="0 0 64 64" width="512" xmlns="http://www.w3.org/2000/svg"><g id="Filled_outline" data-name="Filled outline"><path d="m40 41h10c1.991 0 3.718-1.029 4-3l1-11h-20l1 11c.282 1.971 2.009 3 4 3z" fill="#4f97d5"/><path d="m24 41h-10c-1.991 0-3.718-1.029-4-3l-1-11h20l-1 11c-.282 1.971-2.009 3-4 3z" fill="#4f97d5"/><path d="m17 23a109.7 109.7 0 0 0 -14 1v3a2 2 0 0 1 2 2v2h4.364l-.364-4h20v-3a65.128 65.128 0 0 0 -12-1z" fill="#394d5c"/><path d="m47 23a109.7 109.7 0 0 1 14 1v3a2 2 0 0 0 -2 2v2h-4.364l.364-4h-20v-3a65.128 65.128 0 0 1 12-1z" fill="#394d5c"/><path d="m29 24h6v4h-6z" fill="#7d8d9c"/><path d="m9.489 32.378-5.02 1.255a1.94 1.94 0 0 0 -1.469 1.882 1.94 1.94 0 0 0 2.411 1.885l4.433-1.108z" fill="#394d5c"/><path d="m54.511 32.378 5.02 1.255a1.94 1.94 0 0 1 1.469 1.882 1.94 1.94 0 0 1 -2.411 1.885l-4.433-1.108z" fill="#394d5c"/><path d="m61.146 23.011a111.6 111.6 0 0 0 -14.146-1.011 66.7 66.7 0 0 0 -12.1 1h-5.8a66.7 66.7 0 0 0 -12.1-1 111.6 111.6 0 0 0 -14.146 1.011 1 1 0 0 0 -.854.989v3a1 1 0 0 0 1 1 1 1 0 0 1 1 1v2a1 1 0 0 0 1 1h1.878l-2.65.663a2.941 2.941 0 0 0 .706 5.794 2.985 2.985 0 0 0 .718-.089l3.3-.826.055.6c.333 2.307 2.338 3.858 4.993 3.858h10c2.655 0 4.66-1.551 5-3.91l.823-9.09h4.355l.832 9.141c.33 2.308 2.335 3.859 4.99 3.859h10c2.655 0 4.66-1.551 5-3.91l.05-.548 3.3.826a3 3 0 0 0 .719.089 2.941 2.941 0 0 0 .706-5.794l-2.653-.663h1.878a1 1 0 0 0 1-1v-2a1 1 0 0 1 1-1 1 1 0 0 0 1-1v-3a1 1 0 0 0 -.854-.989zm-55.979 13.416a.94.94 0 0 1 -.455-1.827l3.888-.969.172 1.9zm21.843 1.432c-.225 1.579-1.702 2.141-3.01 2.141h-10a4.142 4.142 0 0 1 -1.36-.226l7.067-7.067-1.414-1.414-7.154 7.154a2.323 2.323 0 0 1 -.139-.537l-.9-9.91h16.486l-7.293 7.293 1.414 1.414 7.048-7.047zm.99-11.859h-19a1 1 0 0 0 -1 1.09l.269 2.91h-2.269v-1a3.006 3.006 0 0 0 -2-2.829v-1.3a109.433 109.433 0 0 1 13-.871 69.2 69.2 0 0 1 11 .836zm6 1h-4v-2h4zm19.01 10.859c-.225 1.579-1.702 2.141-3.01 2.141h-10a4.142 4.142 0 0 1 -1.36-.226l6.067-6.067-1.414-1.414-6.154 6.154a2.323 2.323 0 0 1 -.139-.537l-.9-9.91h14.486l-4.293 4.293 1.414 1.414 5.707-5.707h.491zm6.278-3.259a.94.94 0 1 1 -.456 1.824l-3.6-.9.172-1.9zm.712-8.429a3.006 3.006 0 0 0 -2 2.829v1h-2.268l.268-2.91a1 1 0 0 0 -1-1.09h-19v-1.164a69.2 69.2 0 0 1 11-.836 109.433 109.433 0 0 1 13 .875z"/><path d="m43.379 35.5h4.243v2h-4.243z" transform="matrix(.707 -.707 .707 .707 -12.483 42.864)"/></g></svg>