<svg height="512" viewBox="0 0 64 64" width="512" xmlns="http://www.w3.org/2000/svg"><g id="Filled_outline" data-name="Filled outline"><path d="m21 14v10h4v-10a7 7 0 0 1 7-7 7 7 0 0 1 7 7v10h4v-10a11 11 0 0 0 -11-11 11 11 0 0 0 -11 11z" fill="#b5554e"/><path d="m53 30v17h-42v-17h-6l4 31h46l4-31z" fill="#b5554e"/><path d="m45 26v2h-8v-2h-10v2h-8v-2h-8v21h42v-21z" fill="#ad6327"/><path d="m19 24h8v4h-8z" fill="#ffd782"/><path d="m37 24h8v4h-8z" fill="#ffd782"/><path d="m27 39h10a2 2 0 0 1 2 2v2a0 0 0 0 1 0 0h-14a0 0 0 0 1 0 0v-2a2 2 0 0 1 2-2z" fill="#ad6327"/><path d="m27 26h10v13h-10z" fill="#f9bb4b"/><path d="m27 43h10v4h-10z" fill="#f9bb4b"/><g fill="#ffd782"><path d="m15 43v-17h-4v21h16v-4z"/><path d="m49 43v-17h4v21h-16v-4z"/><circle cx="43" cy="35" r="2"/></g><path d="m10 26v3h-5a1 1 0 0 0 -.992 1.128l4 31a1 1 0 0 0 .992.872h46a1 1 0 0 0 .992-.872l4-31a1 1 0 0 0 -.992-1.128h-5v-3a1 1 0 0 0 -1-1h-7v-1a1 1 0 0 0 -1-1h-1v-9a12 12 0 0 0 -24 0v9h-1a1 1 0 0 0 -1 1v1h-7a1 1 0 0 0 -1 1zm44 21v-16h3.863l-3.742 29h-44.242l-3.742-29h3.863v16a1 1 0 0 0 1 1h42a1 1 0 0 0 1-1zm-26-22v-1a1 1 0 0 0 -1-1h-1v-9a6 6 0 0 1 12 0v9h-1a1 1 0 0 0 -1 1v1zm8 2v11h-8v-11zm-9 13h10a1 1 0 0 1 1 1v1h-12v-1a1 1 0 0 1 1-1zm9 4v2h-8v-2zm14-1v-16h2v19h-14v-2h11a1 1 0 0 0 1-1zm-5-14a1 1 0 0 0 1-1v-1h2v15h-8v-1a3 3 0 0 0 -2-2.816v-9.184h4v3.184a3 3 0 1 0 2 0v-3.184zm-2 5a1 1 0 1 1 -1 1 1 1 0 0 1 1-1zm1-9v2h-6v-2zm-22-11a10 10 0 0 1 20 0v9h-2v-9a8 8 0 0 0 -16 0v9h-2zm-2 11h6v2h-6zm-4 2h2v1a1 1 0 0 0 1 1h7v9.184a3 3 0 0 0 -2 2.816v1h-8zm-4 0h2v16a1 1 0 0 0 1 1h11v2h-14z"/><path d="m12.986 50.836-1.972.328 1 6a1 1 0 0 0 .986.836h4v-2h-3.153z"/><path d="m19 56h2v2h-2z"/><path d="m23 56h2v2h-2z"/></g></svg>