<svg height="512" viewBox="0 0 64 64" width="512" xmlns="http://www.w3.org/2000/svg"><g id="Filled_outline" data-name="Filled outline"><path d="m50 41v5h-36v-5c-6.7 1.282-11 .776-11 3 0 3.866 12.984 7 29 7s29-3.134 29-7c0-2.224-4.3-1.718-11-3z" fill="#66342e"/><path d="m43 14c-2.767 0-4.864 1-6 3a6.237 6.237 0 0 1 -5 3 6.237 6.237 0 0 1 -5-3c-1.136-2-3.233-3-6-3a7.382 7.382 0 0 0 -7 7v25h36v-25a7.382 7.382 0 0 0 -7-7z" fill="#ad6327"/><path d="m14 42h36v4h-36z" fill="#ffd782"/><path d="m22 42h8v4h-8z" fill="#e97424"/><path d="m55.687 40.829c-1.388-.168-2.947-.362-4.687-.667v-19.162c0-3.7-3.494-8-8-8-3.19 0-5.565 1.212-6.869 3.5a5.233 5.233 0 0 1 -4.131 2.5 5.232 5.232 0 0 1 -4.13-2.494c-1.305-2.294-3.68-3.506-6.87-3.506-4.506 0-8 4.3-8 8v19.162c-1.74.3-3.3.5-4.687.667-3.665.443-6.313.763-6.313 3.171 0 5.252 15.092 8 30 8s30-2.748 30-8c0-2.408-2.648-2.728-6.313-3.171zm-40.687-19.829a6.413 6.413 0 0 1 6-6c2.464 0 4.189.839 5.131 2.5a7.2 7.2 0 0 0 5.869 3.5 7.194 7.194 0 0 0 5.868-3.506c.943-1.655 2.668-2.494 5.132-2.494a6.413 6.413 0 0 1 6 6v20h-34zm34 22v2h-18v-2zm-20 0v2h-6v-2zm-14 0h6v2h-6zm17 7c-17.348 0-28-3.495-28-6 0-.635 2.212-.9 4.554-1.186 1.258-.152 2.775-.339 4.446-.622v3.808a1 1 0 0 0 1 1h36a1 1 0 0 0 1-1v-3.808c1.671.283 3.188.47 4.446.622 2.342.286 4.554.551 4.554 1.186 0 2.505-10.652 6-28 6z"/><path d="m22 17h-1a4 4 0 0 0 -4 4v7h2v-7a2 2 0 0 1 2-2h1z"/><path d="m17 30h2v2h-2z"/><path d="m32 25a9.25 9.25 0 0 0 6.766-3.357l-1.532-1.286a7.31 7.31 0 0 1 -5.234 2.643 7.31 7.31 0 0 1 -5.234-2.643l-1.532 1.286a9.25 9.25 0 0 0 6.766 3.357z"/></g></svg>