<svg id="Layer_1" enable-background="new 0 0 512 512" height="512" viewBox="0 0 512 512" width="512" xmlns="http://www.w3.org/2000/svg"><g><path d="m286 434h-60v-176.002c0-16.567 13.431-29.998 29.998-29.998h.003c16.568 0 29.999 13.431 29.999 29.998z" fill="#ca6633"/><path d="m256 228c-5.466 0-10.586 1.469-15 4.023 8.964 5.188 15 14.874 15 25.977v176h30v-176c0-16.569-13.431-30-30-30z" fill="#ae5121"/><path d="m489.5 504.5h-467c-8.284 0-15-6.716-15-15 0-8.284 6.716-15 15-15h467c8.284 0 15 6.716 15 15 0 8.284-6.716 15-15 15z" fill="#ea9946"/><path d="m489.5 474.5h-30c8.284 0 15 6.716 15 15s-6.716 15-15 15h30c8.284 0 15-6.716 15-15s-6.716-15-15-15z" fill="#d7893b"/><path d="m372.069 474.5h-232.138s46.696-54 116.069-54 116.069 54 116.069 54z" fill="#d7893b"/><path d="m256 420.5c-5.128 0-10.129.302-15 .848 61.018 6.847 101.069 53.152 101.069 53.152h30s-46.696-54-116.069-54z" fill="#cc7d2d"/><path d="m257.249 225.146c141.103 31.935 232.319 83.926 232.319 83.926 1.765.511 2.823-1.214 2.308-2.98-5.988-20.542-19.259-81.909-73.227-97.536-33.619-9.734-117.639-3.605-161.4 16.59z" fill="#4ba543"/><path d="m491.876 306.093c-5.988-20.542-19.259-81.909-73.227-97.536-13.507-3.911-35.152-5.259-59.05-4.166 11.522.612 21.544 1.992 29.05 4.166 45.225 13.095 61.868 58.306 69.599 84.701 20.295 9.533 31.32 15.815 31.32 15.815 1.765.511 2.822-1.214 2.308-2.98z" fill="#44963d"/><path d="m260.719 218.347c131.886-59.464 236.018-72.877 236.018-72.877 1.717-.655 1.523-2.669.049-3.769-17.15-12.795-64.696-53.801-117.194-33.782-32.703 12.471-96.095 67.954-118.873 110.428z" fill="#4ba543"/><g fill="#44963d"><path d="m261.217 217.438c-.166.303-.337.607-.499.909 4.435-1.999 8.835-3.942 13.204-5.839-4.193 1.577-8.429 3.221-12.705 4.93z"/><path d="m496.785 141.701c-17.15-12.795-64.696-53.801-117.194-33.782-.542.207-1.093.427-1.651.656 41.896 2.733 78.187 27.088 93.724 41.204 16.061-3.148 25.072-4.31 25.072-4.31 1.718-.654 1.523-2.668.049-3.768z"/></g><path d="m259.61 211.87c68.564-127.392 143.09-201.348 143.09-201.348.965-1.564-.414-3.045-2.253-3.022-21.396.267-84.075-3.386-113.587 44.425-18.385 29.783-34.986 112.374-27.25 159.945z" fill="#4ba543"/><path d="m400.447 7.5c-6.365.079-16.384-.188-28.096.656.663.573.913 1.451.349 2.366 0 0-60.443 51.301-114.796 184.326.29 6.025.847 11.74 1.706 17.022 68.564-127.392 143.09-201.348 143.09-201.348.964-1.564-.415-3.045-2.253-3.022z" fill="#44963d"/><path d="m252.958 225.146c-141.102 31.935-232.318 83.927-232.318 83.927-1.765.511-2.823-1.214-2.308-2.98 5.988-20.542 19.259-81.909 73.227-97.536 33.619-9.735 117.638-3.606 161.399 16.589z" fill="#4ba543"/><path d="m225.65 215.542c-91.469 20.993-163.845 54.545-202.956 75.243-1.858 6.159-3.238 11.452-4.362 15.308-.515 1.765.543 3.491 2.308 2.979 0 0 91.216-51.992 232.319-83.926-7.954-3.67-17.241-6.873-27.309-9.604z" fill="#44963d"/><path d="m249.489 218.347c-131.886-59.464-236.018-72.877-236.018-72.877-1.717-.655-1.523-2.669-.049-3.769 17.15-12.795 64.696-53.801 117.194-33.782 32.703 12.471 96.094 67.954 118.873 110.428z" fill="#4ba543"/><path d="m100.616 107.919c28.369 10.818 79.827 54.003 107.838 92.986 13.305 5.321 27.011 11.119 41.035 17.442-22.779-42.474-86.17-97.957-118.873-110.427-15.485-5.905-30.538-6.498-44.508-4.074 4.779.877 9.622 2.21 14.508 4.073z" fill="#44963d"/><path d="m250.598 211.87c-68.564-127.392-143.09-201.348-143.09-201.348-.965-1.564.414-3.045 2.253-3.022 21.396.267 84.075-3.386 113.587 44.425 18.384 29.783 34.986 112.374 27.25 159.945z" fill="#4ba543"/><path d="m223.348 51.925c-29.512-47.811-92.191-44.158-113.587-44.425-.763-.01-1.434.249-1.904.656 27.658 1.992 64.759 10.181 85.491 43.769 15.542 25.179 41.531 89.098 44.521 137.003 4.253 7.442 8.502 15.09 12.729 22.943 7.736-47.573-8.866-130.163-27.25-159.946z" fill="#44963d"/><circle cx="226" cy="234" fill="#fdb720" r="30"/><path d="m226 204c-5.466 0-10.586 1.469-15 4.023 8.964 5.188 15 14.874 15 25.977s-6.036 20.789-15 25.977c4.414 2.554 9.534 4.023 15 4.023 16.569 0 30-13.431 30-30s-13.431-30-30-30z" fill="#fca309"/><circle cx="286" cy="234" fill="#fdb720" r="30"/><path d="m286 204c-5.466 0-10.586 1.469-15 4.023 8.964 5.188 15 14.874 15 25.977s-6.036 20.789-15 25.977c4.414 2.554 9.534 4.023 15 4.023 16.569 0 30-13.431 30-30s-13.431-30-30-30z" fill="#fca309"/><circle cx="256" cy="204" fill="#fdb720" r="30"/><path d="m256 174c-5.466 0-10.586 1.469-15 4.023 8.964 5.188 15 14.874 15 25.977s-6.036 20.789-15 25.977c4.414 2.554 9.534 4.023 15 4.023 16.569 0 30-13.431 30-30s-13.431-30-30-30z" fill="#fca309"/><path d="m489.5 467h-114.133c-8.42-8.868-38.192-37.459-81.867-49.05v-147.204c11.946-2.435 21.836-10.571 26.716-21.427 101.279 29.96 164.995 65.905 165.64 66.272.513.292 1.061.523 1.628.688.877.253 1.77.376 2.653.376 2.779 0 5.465-1.219 7.286-3.42 2.443-2.952 2.892-7.088 1.141-10.536-2.124-4.184-4.349-10.099-6.925-16.949-3.745-9.96-8.407-22.355-14.74-34.329-1.937-3.661-6.472-5.059-10.137-3.123-3.661 1.938-5.06 6.476-3.123 10.137 5.889 11.132 10.177 22.534 13.96 32.596.526 1.399 1.039 2.763 1.542 4.087-24.592-12.407-79.948-38.154-155.657-60.47.004-.216.016-.43.016-.646 0-6.511-1.671-12.638-4.602-17.98 37.115-5.76 77.604-5.999 97.687-.253 11.415 3.267 21.2 9.242 29.915 18.268 1.472 1.523 3.433 2.29 5.396 2.29 1.875 0 3.753-.699 5.209-2.104 2.979-2.878 3.063-7.625.186-10.605-10.449-10.82-22.756-18.312-36.579-22.27-20.709-5.925-58.823-6.278-95.843-1.345 78.867-29.554 146.068-43.632 172.828-47.092.585-.076 1.16-.221 1.711-.431 3.262-1.243 5.49-4.004 5.961-7.385.494-3.546-1.077-7.149-4.099-9.403-1.187-.885-2.521-1.908-3.996-3.037-20.242-15.513-67.647-51.837-120.355-31.741-20.22 7.711-50.338 30.072-76.608 55.894 18.727-29.902 38.818-58.59 59.962-85.583 2.555-3.261 1.981-7.975-1.279-10.529-3.26-2.555-7.975-1.983-10.529 1.279-26.671 34.048-51.69 70.743-74.439 109.154-2.596-1.429-5.38-2.556-8.303-3.342 2.651-41.86 14.634-91.045 27.52-111.921 22.985-37.235 68.104-40.535 94.815-40.82-4.813 5.229-11.319 12.512-19.149 21.78-2.673 3.164-2.274 7.895.89 10.569 3.163 2.672 7.896 2.274 10.569-.89 16.759-19.837 27.511-30.553 27.617-30.659.419-.416.789-.882 1.1-1.386 1.832-2.97 1.922-6.516.24-9.484-1.742-3.077-5.118-4.975-8.837-4.975-.045 0-.09 0-.134.001-1.481.019-3.16.018-5.022.017-25.479-.019-85.226-.033-114.854 47.967-10.325 16.728-19.852 48.34-25.372 81.482-5.516-33.139-15.038-64.734-25.376-81.482-29.628-48-89.325-47.968-114.853-47.968-1.859 0-3.542.002-5.024-.017-3.786-.068-7.206 1.859-8.969 4.974-1.681 2.97-1.59 6.517.242 9.486.31.502.68.968 1.099 1.384.565.561 51.806 51.888 107.607 140.864-26.215-25.796-56.157-48.024-76.543-55.798-52.71-20.097-100.114 16.228-120.356 31.741-1.474 1.13-2.809 2.152-3.996 3.038-3.022 2.255-4.592 5.858-4.098 9.404.471 3.381 2.7 6.141 5.962 7.384.551.21 1.126.354 1.71.43.126.017 12.905 1.689 34.709 6.292 4.057.86 8.032-1.735 8.888-5.789.855-4.053-1.736-8.031-5.789-8.887-9.139-1.93-16.692-3.353-22.475-4.366 21.382-16.014 59.212-40.82 100.099-25.231 24.158 9.213 65.211 42.758 93.007 75.759-.789 2.071-1.397 4.228-1.81 6.454-45.248-18.526-91.338-33.748-137.009-45.239-4.017-1.008-8.093 1.427-9.104 5.443-1.011 4.017 1.426 8.093 5.443 9.104 35.565 8.949 71.396 20.205 106.88 33.545-37.17-4.981-75.169-4.636-95.878 1.36-54.182 15.688-70.158 73.234-76.98 97.807-.497 1.791-.947 3.412-1.361 4.834-1.055 3.619-.14 7.441 2.389 9.975 1.76 1.764 4.067 2.699 6.49 2.699.896 0 1.809-.128 2.714-.391.568-.164 1.115-.396 1.629-.688.648-.369 64.879-36.647 167.219-66.738 4.803 11.092 14.81 19.425 26.927 21.895v147.204c-43.675 11.59-73.447 40.181-81.867 49.05h-114.132c-12.407 0-22.5 10.094-22.5 22.5s10.093 22.5 22.5 22.5h467c12.406 0 22.5-10.094 22.5-22.5s-10.094-22.5-22.5-22.5zm-233.5-210.525c5.412 7.207 13.356 12.408 22.5 14.271v23.754h-45v-23.755c9.144-1.863 17.088-7.064 22.5-14.27zm22.5 78.525h-45v-25.5h45zm-45 15h45v25.5h-45zm52.5-93.5c-12.406 0-22.5-10.094-22.5-22.5s10.094-22.5 22.5-22.5 22.5 10.094 22.5 22.5-10.094 22.5-22.5 22.5zm-51.532-59.023c2.803-9.234 11.394-15.976 21.532-15.976s18.729 6.742 21.532 15.976c-8.734 2.025-16.312 7.1-21.532 14.05-5.22-6.951-12.798-12.026-21.532-14.05zm147.796-82.55c40.903-15.597 78.751 9.242 100.129 25.254-28.794 5.087-101.214 20.248-189.655 56.275-.513-2.501-1.279-4.91-2.264-7.203 27.679-32.416 68.207-65.333 91.79-74.326zm-165.298-59.062c12.955 20.989 24.968 70.446 27.553 112.44-2.781.897-5.424 2.105-7.881 3.593-47.699-80.66-95.007-135.584-114.526-156.854 26.706.283 71.858 3.568 94.854 40.821zm-188.057 240.345c7.426-25.654 22.688-68.273 64.736-80.449 20.359-5.894 61.557-5.543 99.317.519-2.844 5.281-4.461 11.315-4.461 17.721 0 .042.003.083.003.125-78.931 23.111-136.014 50.062-159.595 62.084zm174.591-62.21c0-12.406 10.093-22.5 22.5-22.5s22.5 10.094 22.5 22.5-10.093 22.5-22.5 22.5-22.5-10.093-22.5-22.5zm30 156.5h45v24.276c-7.198-1.137-14.707-1.776-22.5-1.776s-15.302.639-22.5 1.776zm22.5 37.5c44.416 0 79.489 23.784 97.38 39h-194.806c17.839-15.214 52.859-39 97.426-39zm233.5 69h-467c-4.136 0-7.5-3.364-7.5-7.5s3.364-7.5 7.5-7.5h467c4.136 0 7.5 3.364 7.5 7.5s-3.364 7.5-7.5 7.5z"/></g></svg>