<svg id="Capa_1" enable-background="new 0 0 511.974 511.974" height="512" viewBox="0 0 511.974 511.974" width="512" xmlns="http://www.w3.org/2000/svg"><g><path d="m313.579 139.821s0-69.675-34.439-69.66c-28.489.012-29.84 29.375-11.263 83.678z" fill="#e7889d"/><path d="m266.762 98.723c-3.77 1.702-7.519 2.846-11.073 3.418.782 13.307 4.975 30.613 12.188 51.698l45.702-14.017s-.002-23.02-6.543-42.594c-5.883-2.101-12.105-3.215-18.329-3.215-7.639-.001-15.023 1.584-21.945 4.71z" fill="#e16e7e"/><path d="m425.181 284.141-63.754-23.989c-17.447-6.565-29.953-22.085-32.657-40.529l-9.417-64.224c-1.57-10.708-7.404-20.325-16.175-26.664-6.997-5.057-16.202-6.224-24.07-2.671-37.631 16.992-75.627.306-73.913-45.692.503-13.487-5.454-26.397-16.393-34.303l-1.021-.738c-9.163-6.623-21.82-5.409-29.558 2.834l-115.177 122.702 203.75 204.304c15.022 15.063 35.42 23.528 56.693 23.528h200.985c0-50.971-31.588-96.607-79.293-114.558z" fill="#fbf1cf"/><path d="m178.825 307.015c-1.879-73.98 15.431-151.847 37.623-189.106-7.518-8.739-11.858-21.312-11.254-37.536.503-13.487-5.454-26.398-16.393-34.303l-1.021-.738c-9.163-6.623-21.82-5.409-29.558 2.834l-115.176 122.701z" fill="#fae0bd"/><path d="m205.435 89.859c-.274-3.01-.364-6.17-.24-9.487.503-13.487-5.454-26.398-16.393-34.303l-1.021-.738c-9.163-6.623-21.82-5.409-29.558 2.834l-30.472 32.463c25.145 15.476 57.937 20.87 77.684 9.231z" fill="#e16e7e"/><path d="m504.474 398.699h-200.985c-21.273 0-41.671-8.466-56.693-23.528l-203.75-204.304-24.704 24.704c-14.478 14.478-14.493 37.947-.034 52.443l165.551 165.982c36.324 36.419 85.647 56.887 137.084 56.887h145.263c21.135 0 38.268-17.133 38.268-38.268z" fill="#4e5660"/><path d="m43.046 170.867-24.704 24.704c-14.478 14.478-14.493 37.947-.034 52.444l165.551 165.981c9.185 9.209 19.204 17.394 29.876 24.491-23.496-32.719-33.634-81.197-34.911-131.472z" fill="#3a4351"/><path d="m43.046 170.867 122.001 122.333c-4.726-64.675-25.891-141.085-61.576-186.705z" fill="#a2ddfd"/><path d="m308.586 398.699h195.888c0-49.479-29.769-93.927-75.15-112.907 28.056 26.229 12.341 72.096-25.297 72.096h-54.63c-22.539 0-40.811 18.272-40.811 40.811z" fill="#e7889d"/><path d="m228.571 127.467c.246 73.523 7.542 179.115 137.896 134.582l-5.039-1.896c-17.447-6.565-29.953-22.085-32.657-40.529l-9.417-64.224c-1.57-10.708-7.404-20.325-16.175-26.664-6.997-5.057-16.202-6.224-24.07-2.671-18.296 8.26-36.676 8.559-50.538 1.402z" fill="#a2ddfd"/><path d="m496.91 337.976c-1.938-3.661-6.478-5.059-10.137-3.122-3.662 1.937-5.06 6.475-3.123 10.137 7.548 14.266 12.014 30.103 13.077 46.209h-179.779c3.412-14.766 16.661-25.811 32.449-25.811h54.63c32.985 0 52.969-30.495 45.564-59.681 5.107 3.712 9.92 7.858 14.413 12.43 2.904 2.955 7.653 2.996 10.606.092 2.954-2.903 2.996-7.652.093-10.606-13.309-13.542-29.082-23.804-46.881-30.501-7.001-2.634-56.723-21.344-63.754-23.989-14.888-5.602-25.569-18.858-27.877-34.597l-9.417-64.224c-.859-5.858-2.837-11.472-5.729-16.563-.138-5.292-.848-19.825-4.49-34.562-8.279-33.494-24.906-40.525-37.404-40.525-.004 0-.01 0-.014 0-10.759.005-18.935 3.557-24.302 10.558-7.848 10.239-8.892 26.824-3.172 51.807-22.996.419-40.083-14.614-38.974-44.373.604-16.202-6.684-31.402-19.495-40.662l-1.02-.737c-12.184-8.807-29.132-7.182-39.419 3.78-5.417 5.768-97.873 104.264-115.087 122.603l-24.628 24.629c-17.37 17.37-17.389 45.651-.041 63.043l13.677 13.713c2.92 2.928 7.67 2.944 10.606.014 2.933-2.925 2.939-7.674.014-10.606l-13.677-13.713c-11.514-11.543-11.501-30.314.027-41.844l19.393-19.393 198.446 198.987c16.549 16.593 38.569 25.732 62.003 25.732h193.485v26.415c0 16.966-13.803 30.768-30.769 30.768h-145.26c-48.084 0-95.875-18.69-131.775-54.683l-126.566-126.898c-2.924-2.932-7.673-2.939-10.606-.014s-2.939 7.674-.014 10.606l126.566 126.897c36.696 36.79 87.463 59.09 142.395 59.09h145.262c25.237 0 45.769-20.532 45.769-45.768v-33.914c-.001-21.097-5.21-42.095-15.065-60.724zm-230.169-255.632c.887-1.158 3.587-4.68 12.402-4.684h.007c15.746 0 22.756 23.751 25.463 43.11-8.801-5.017-19.461-5.664-28.591-1.542-3.169 1.431-6.343 2.589-9.49 3.493-5.894-25.159-3.26-35.853.209-40.377zm15.453 50.556c13.638-6.156 27.559 8.723 29.738 23.588l1.684 11.486h-29.057c-4.143 0-7.5 3.358-7.5 7.5s3.357 7.5 7.5 7.5h31.257l4.274 29.15h-31.025c-4.143 0-7.5 3.358-7.5 7.5s3.357 7.5 7.5 7.5h33.599c3.564 13.559 11.851 25.321 23.214 33.248-31.744 7.997-56.492 5.854-73.721-6.423-31.636-22.545-35.363-76.653-35.984-115.676 15.336 3.867 31.784 1.056 46.021-5.373zm-118.502-79.602c5.141-5.477 13.608-6.289 19.696-1.888.239.284 15.047 8.942 14.312 28.683-.067 1.783-.058 3.527-.016 5.252-14.811 6.169-37.389 3.535-57.869-6.611zm-110.211 117.411 49.296-52.517c25.693 36.767 45.431 94.927 52.759 154.85zm248.198 220.447c-18.74-.456-36.286-7.958-49.573-21.28l-79.805-80.023c-4.75-59.633-23.79-134.187-59.052-182.816l15.907-16.946c20.914 11.392 48.4 17.625 70.484 10.49 3.205 13.086 10.308 24.032 21.458 31.212.452 54.991 6.365 108.725 42.355 134.371 29.145 20.768 69.015 15.028 102.86 3.84 59.761 22.504 55.948 21.016 58.773 22.154 21.746 21.662 9.519 58.23-21.059 58.23h-54.63c-24.072.001-44.084 17.7-47.718 40.768z"/></g></svg>