<?xml version="1.0" encoding="iso-8859-1"?>
<!-- Generator: Adobe Illustrator 19.0.0, SVG Export Plug-In . SVG Version: 6.00 Build 0)  -->
<svg version="1.1" id="Capa_1" xmlns="http://www.w3.org/2000/svg" xmlns:xlink="http://www.w3.org/1999/xlink" x="0px" y="0px"
	 viewBox="0 0 511.999 511.999" style="enable-background:new 0 0 511.999 511.999;" xml:space="preserve">
<path style="fill:#E4E9F4;" d="M487.232,504.279H24.766c-9.414,0-17.046-7.632-17.046-17.046V24.767
	c0-9.414,7.632-17.046,17.046-17.046h462.465c9.414,0,17.046,7.632,17.046,17.046v462.466
	C504.278,496.647,496.646,504.279,487.232,504.279z"/>
<g>
	<circle style="fill:#2B96F5;" cx="97.159" cy="98.02" r="35.946"/>
	<circle style="fill:#2B96F5;" cx="255.999" cy="254.83" r="35.946"/>
	<circle style="fill:#2B96F5;" cx="408.349" cy="408.19" r="35.946"/>
</g>
<path d="M504.278,370.442c4.264,0,7.721-3.456,7.721-7.721V24.767C511.999,11.111,500.888,0,487.232,0H24.766
	C11.11,0,0,11.111,0,24.767v462.465c0,13.656,11.11,24.767,24.767,24.767h462.465c13.656,0.001,24.767-11.11,24.767-24.766V398.5
	c0-4.265-3.457-7.721-7.721-7.721s-7.721,3.456-7.721,7.721v88.733c0,5.142-4.183,9.325-9.325,9.325H24.766
	c-5.142,0-9.325-4.183-9.325-9.325V24.767c0-5.142,4.183-9.325,9.325-9.325h462.465c5.142,0,9.325,4.183,9.325,9.325v337.954
	C496.557,366.986,500.013,370.442,504.278,370.442z"/>
<path d="M476.438,173.342c0-4.265-3.457-7.721-7.721-7.721H346.075V47.087c0-4.265-3.457-7.721-7.721-7.721
	s-7.721,3.456-7.721,7.721v118.534H180.758V47.087c0-4.265-3.457-7.721-7.721-7.721s-7.721,3.456-7.721,7.721v118.534H43.281
	c-4.264,0-7.721,3.456-7.721,7.721s3.457,7.721,7.721,7.721h122.035v149.875H43.281c-4.264,0-7.721,3.456-7.721,7.721
	s3.457,7.721,7.721,7.721h122.035v118.534c0,4.265,3.457,7.721,7.721,7.721c4.264,0,7.721-3.456,7.721-7.721V346.379h16.697
	c4.264,0,7.721-3.456,7.721-7.721s-3.457-7.721-7.721-7.721h-16.697V181.062h149.875v149.875H230.397
	c-4.264,0-7.721,3.456-7.721,7.721s3.457,7.721,7.721,7.721h100.236v118.534c0,4.265,3.457,7.721,7.721,7.721
	s7.721-3.456,7.721-7.721V346.379h122.643c4.264,0,7.721-3.456,7.721-7.721s-3.457-7.721-7.721-7.721H346.075V181.062h122.643
	C472.982,181.062,476.438,177.606,476.438,173.342z"/>
<path d="M97.157,69.793c2.934,0,2.771,0.206,4.526,0.544c4.524,0.871,8.407-0.948,9.701-5.011c1.295-4.063-0.886-8.701-5.011-9.701
	c-4.367-1.059-4.689-1.274-9.217-1.274c-24.078,0-43.667,19.589-43.667,43.668c0,24.078,19.589,43.667,43.667,43.667
	s43.667-19.589,43.667-43.667c0-7.19-0.82-11.595-4.201-17.894c-2.016-3.757-6.696-5.168-10.454-3.153
	c-3.757,2.016-5.169,6.697-3.153,10.453c2.181,4.064,2.366,5.943,2.366,10.593c0,15.564-12.662,28.225-28.225,28.225
	s-28.225-12.661-28.225-28.225S81.594,69.793,97.157,69.793z"/>
<path d="M255.999,298.495c24.078,0,43.667-19.589,43.667-43.668c0-24.078-19.589-43.667-43.667-43.667s-43.667,19.589-43.667,43.667
	C212.332,278.907,231.921,298.495,255.999,298.495z M255.999,226.603c15.564,0,28.225,12.661,28.225,28.225
	s-12.662,28.226-28.225,28.226s-28.225-12.662-28.225-28.226S240.435,226.603,255.999,226.603z"/>
<path d="M364.685,408.19c0,24.079,19.589,43.668,43.667,43.668s43.667-19.589,43.667-43.668c0-24.078-19.589-43.667-43.667-43.667
	C384.273,364.524,364.685,384.113,364.685,408.19z M436.577,408.19c0,15.564-12.662,28.226-28.225,28.226
	c-15.564,0-28.225-12.662-28.225-28.226c0-15.564,12.662-28.225,28.225-28.225C423.915,379.966,436.577,392.627,436.577,408.19z"/>
<path d="M443.138,219.323c-3.064-2.967-7.952-2.887-10.918,0.178l-23.869,24.659l-23.869-24.659
	c-2.966-3.065-7.853-3.145-10.918-0.178c-3.064,2.966-3.144,7.854-0.178,10.917l24.219,25.021l-24.219,25.021
	c-2.966,3.063-2.886,7.951,0.178,10.917c1.499,1.452,3.435,2.174,5.369,2.174c2.018,0,4.034-0.786,5.549-2.351l23.869-24.659
	l23.869,24.659c1.515,1.565,3.531,2.351,5.549,2.351c1.934,0,3.87-0.722,5.369-2.174c3.064-2.966,3.144-7.854,0.178-10.917
	l-24.219-25.021l24.219-25.021C446.282,227.177,446.202,222.289,443.138,219.323z"/>
<path d="M138.474,372.253c-3.065-2.967-7.953-2.887-10.918,0.178l-23.869,24.659l-23.869-24.659
	c-2.966-3.065-7.854-3.145-10.918-0.178c-3.064,2.966-3.144,7.854-0.178,10.917l24.219,25.021l-24.219,25.021
	c-2.966,3.063-2.886,7.951,0.178,10.917c1.499,1.452,3.435,2.174,5.369,2.174c2.018,0,4.034-0.786,5.549-2.351l23.869-24.659
	l23.869,24.659c1.515,1.565,3.531,2.351,5.549,2.351c1.934,0,3.87-0.722,5.369-2.174c3.064-2.966,3.144-7.854,0.178-10.917
	l-24.219-25.021l24.219-25.021C141.617,380.106,141.537,375.218,138.474,372.253z"/>
<g>
</g>
<g>
</g>
<g>
</g>
<g>
</g>
<g>
</g>
<g>
</g>
<g>
</g>
<g>
</g>
<g>
</g>
<g>
</g>
<g>
</g>
<g>
</g>
<g>
</g>
<g>
</g>
<g>
</g>
</svg>
